<?xml version="1.0" encoding="utf-8"?>
<svg version="1.1" xmlns:xlink="http://www.w3.org/1999/xlink" width="72px" height="75px" xmlns="http://www.w3.org/2000/svg">
  <g transform="matrix(1 0 0 1 -399 -289 )">
    <path d="M 68.3265306122449 14.990234375  C 69.421368547419 15.478515625  70.2713085234094 16.1783854166667  70.8763505402161 17.08984375  C 72.0288115246098 18.9453125  72.2881152460984 21.044921875  71.6542617046819 23.388671875  L 59.7695078031213 67.626953125  C 59.2220888355342 69.7102864583333  58.1200480192077 71.4599609375  56.4633853541417 72.8759765625  C 54.8067226890756 74.2919921875  53.0420168067227 75  51.1692677070828 75  L 11.2797118847539 75  C 9.06122448979592 75  6.92196878751501 74.1292317708333  4.86194477791117 72.3876953125  C 2.80192076830732 70.6461588541667  1.36854741896759 68.505859375  0.561824729891957 65.966796875  C -0.129651860744298 63.7858072916667  -0.158463385354142 61.71875  0.475390156062425 59.765625  C 0.475390156062425 59.6354166666667  0.518607442977191 59.1959635416667  0.605042016806723 58.447265625  C 0.691476590636254 57.6985677083333  0.749099639855943 57.0963541666667  0.777911164465786 56.640625  C 0.80672268907563 56.3802083333333  0.763505402160864 56.0302734375  0.648259303721489 55.5908203125  C 0.533013205282113 55.1513671875  0.489795918367347 54.833984375  0.518607442977191 54.638671875  C 0.576230492196879 54.2805989583333  0.691476590636254 53.9388020833333  0.864345738295318 53.61328125  C 1.03721488595438 53.2877604166667  1.27490996398559 52.9052734375  1.57743097238896 52.4658203125  C 1.87995198079232 52.0263671875  2.11764705882353 51.6438802083333  2.29051620648259 51.318359375  C 2.953181272509 50.0813802083333  3.60144057623049 48.5921223958333  4.23529411764706 46.8505859375  C 4.86914765906363 45.1090494791667  5.30132052821129 43.6197916666667  5.53181272509004 42.3828125  C 5.61824729891957 42.0572916666667  5.62545018007203 41.5690104166667  5.55342136854742 40.91796875  C 5.48139255702281 40.2669270833333  5.47418967587035 39.8111979166667  5.53181272509004 39.55078125  C 5.61824729891957 39.1927083333333  5.86314525810324 38.7369791666667  6.26650660264106 38.18359375  C 6.66986794717887 37.6302083333333  6.91476590636255 37.255859375  7.00120048019208 37.060546875  C 7.6062424969988 35.888671875  8.21128451380552 34.3912760416667  8.81632653061224 32.568359375  C 9.42136854741897 30.7454427083333  9.78151260504202 29.2805989583333  9.89675870348139 28.173828125  C 9.92557022809124 27.880859375  9.88955582232893 27.3600260416667  9.78871548619448 26.611328125  C 9.68787515006002 25.8626302083333  9.69507803121249 25.4069010416667  9.81032412965186 25.244140625  C 9.92557022809124 24.8209635416667  10.2424969987995 24.3245442708333  10.7611044417767 23.7548828125  C 11.2797118847539 23.1852213541667  11.5966386554622 22.8190104166667  11.7118847539016 22.65625  C 12.2593037214886 21.8098958333333  12.8715486194478 20.4345703125  13.5486194477791 18.5302734375  C 14.2256902761104 16.6259765625  14.6218487394958 15.0553385416667  14.7370948379352 13.818359375  C 14.765906362545 13.5579427083333  14.7226890756303 13.1429036458333  14.6074429771909 12.5732421875  C 14.4921968787515 12.0035807291667  14.4633853541417 11.572265625  14.5210084033613 11.279296875  C 14.578631452581 11.0188802083333  14.7082833133253 10.7259114583333  14.9099639855942 10.400390625  C 15.1116446578631 10.0748697916667  15.3709483793517 9.70052083333333  15.68787515006 9.27734375  C 16.0048019207683 8.85416666666666  16.249699879952 8.51236979166666  16.422569027611 8.251953125  C 16.6530612244898 7.861328125  16.890756302521 7.36490885416667  17.1356542617047 6.7626953125  C 17.3805522208884 6.16048177083332  17.5966386554622 5.5908203125  17.7839135654262 5.0537109375  C 17.9711884753902 4.5166015625  18.2016806722689 3.9306640625  18.4753901560624 3.2958984375  C 18.7490996398559 2.6611328125  19.0300120048019 2.14029947916666  19.3181272509004 1.7333984375  C 19.6062424969988 1.32649739583332  19.9879951980792 0.94401041666666  20.4633853541417 0.5859375  C 20.9387755102041 0.227864583333323  21.4573829531813 0.0406901041666657  22.0192076830732 0.0244140625000028  C 22.5810324129652 0.00813802083332316  23.265306122449 0.0976562500000028  24.0720288115246 0.29296875  L 24.0288115246098 0.439453125  C 25.1236494597839 0.146484375  25.8583433373349 0  26.2328931572629 0  L 59.1212484993998 0  C 61.2533013205282 0  62.8955582232893 0.911458333333326  64.0480192076831 2.734375  C 65.2004801920768 4.55729166666666  65.4597839135654 6.67317708333332  64.8259303721489 9.08203125  L 52.984393757503 53.3203125  C 51.9471788715486 57.1940104166667  50.9171668667467 59.6923828125  49.8943577430972 60.8154296875  C 48.8715486194478 61.9384765625  47.0204081632653 62.5  44.3409363745498 62  L 6.78511404561825 62  C 6.00720288115246 62.5  5.45978391356543 62.744140625  5.14285714285714 63.232421875  C 4.82593037214886 63.7532552083333  4.81152460984394 64.453125  5.09963985594238 65.33203125  C 5.79111644657863 67.6106770833333  7.8655462184874 68.75  11.3229291716687 68  L 51.2124849939976 68  C 52.0480192076831 68.75  52.8547418967587 68.4977213541667  53.6326530612245 67.9931640625  C 54.4105642256903 67.4886067708333  54.9147659063625 66.8131510416667  55.1452581032413 65.966796875  L 68.1104441776711 17.7734375  C 68.31212484994 17.0572916666667  68.3841536614646 16.1295572916667  68.3265306122449 14.990234375  Z M 25.8007202881152 14.0625  L 24.8931572629052 17.1875  C 24.7779111644658 17.6106770833333  24.8067226890756 17.9768880208333  24.9795918367347 18.2861328125  C 25.1524609843938 18.5953776041667  25.4405762304922 18.75  25.84393757503 19  L 52.1200480192077 19  C 52.4945978391357 18.75  52.8619447779112 18.5953776041667  53.2220888355342 18.2861328125  C 53.5822328931573 17.9768880208333  53.8199279711885 17.6106770833333  53.9351740696279 17.1875  L 54.8427370948379 14.0625  C 54.9579831932773 13.6393229166667  54.9291716686675 13.2731119791667  54.7563025210084 12.9638671875  C 54.5834333733493 12.6546223958333  54.2953181272509 12.5  53.8919567827131 13  L 27.6158463385354 13  C 27.2412965186074 12.5  26.8739495798319 12.6546223958333  26.5138055222089 12.9638671875  C 26.1536614645858 13.2731119791667  25.9159663865546 13.6393229166667  25.8007202881152 14.0625  Z M 22.2136854741897 26.5625  L 21.3061224489796 29.6875  C 21.1908763505402 30.1106770833333  21.2196878751501 30.4768880208333  21.3925570228091 30.7861328125  C 21.5654261704682 31.0953776041667  21.8535414165666 31.25  22.2569027611044 32  L 48.5330132052821 32  C 48.9075630252101 31.25  49.2749099639856 31.0953776041667  49.6350540216086 30.7861328125  C 49.9951980792317 30.4768880208333  50.2328931572629 30.1106770833333  50.3481392557023 29.6875  L 51.2557022809124 26.5625  C 51.3709483793517 26.1393229166667  51.3421368547419 25.7731119791667  51.1692677070828 25.4638671875  C 50.9963985594238 25.1546223958333  50.7082833133253 25  50.3049219687875 25  L 24.0288115246098 25  C 23.6542617046819 25  23.2869147659064 25.1546223958333  22.9267707082833 25.4638671875  C 22.5666266506603 25.7731119791667  22.3289315726291 26.1393229166667  22.2136854741897 26.5625  Z " fill-rule="nonzero" fill="#000000" stroke="none" transform="matrix(1 0 0 1 399 289 )" />
  </g>
</svg>